M48
; DRILL file {KiCad (5.1.8)-1} date 06/05/22 20:07:47
; FORMAT={-:-/ absolute / inch / decimal}
; #@! TF.CreationDate,2022-06-05T20:07:47-06:00
; #@! TF.GenerationSoftware,Kicad,Pcbnew,(5.1.8)-1
; #@! TF.FileFunction,Plated,1,2,PTH
FMAT,2
INCH
T1C0.0157
T2C0.0315
T3C0.0394
%
G90
G05
T1
X3.1997Y-1.539
X3.1997Y-1.669
X3.2397Y-4.379
X3.2997Y-1.499
X3.3497Y-1.829
X3.3997Y-1.539
X3.4497Y-2.439
X3.4997Y-1.539
X3.4997Y-2.399
X3.5097Y-4.059
X3.5097Y-4.339
X3.5497Y-2.939
X3.5497Y-3.759
X3.5537Y-4.0443
X3.5797Y-3.659
X3.5807Y-4.009
X3.5997Y-2.969
X3.6097Y-3.559
X3.6212Y-3.9781
X3.6397Y-3.459
X3.6497Y-2.909
X3.6597Y-3.949
X3.6697Y-3.359
X3.6925Y-3.9172
X3.6997Y-2.999
X3.6997Y-3.259
X3.7297Y-3.159
X3.7297Y-3.889
X3.7497Y-2.879
X3.7647Y-3.859
X3.7797Y-3.699
X3.7997Y-2.479
X3.7997Y-3.339
X3.7997Y-3.829
X3.7997Y-4.079
X3.8497Y-2.849
X3.8497Y-3.529
X3.8497Y-4.299
X3.8997Y-2.459
X3.8997Y-2.939
X3.8997Y-3.679
X3.8997Y-4.059
X3.9497Y-2.819
X3.9697Y-2.999
X3.9697Y-3.369
X3.9997Y-2.379
X3.9997Y-2.909
X3.9997Y-3.659
X3.9997Y-4.039
X4.0497Y-2.789
X4.0997Y-2.879
X4.0997Y-3.639
X4.0997Y-4.019
X4.1497Y-2.759
X4.1997Y-2.069
X4.1997Y-2.849
X4.1997Y-3.619
X4.1997Y-3.999
X4.2397Y-2.869
X4.2397Y-3.209
X4.2497Y-2.729
X4.2697Y-2.899
X4.2697Y-3.289
X4.2997Y-2.359
X4.2997Y-2.819
X4.2997Y-3.599
X4.2997Y-3.979
X4.3497Y-3.279
X4.3997Y-2.789
X4.3997Y-3.579
X4.3997Y-3.959
X4.4197Y-1.579
X4.4497Y-3.259
X4.4997Y-2.499
X4.4997Y-2.759
X4.4997Y-3.559
X4.4997Y-3.939
X4.5497Y-3.239
X4.5497Y-3.369
X4.5697Y-2.729
X4.5997Y-2.759
X4.5997Y-3.539
X4.6497Y-3.219
X4.6997Y-2.779
X4.6997Y-3.349
X4.7497Y-3.199
X4.7997Y-2.799
X4.7997Y-3.879
X4.8497Y-3.179
X4.8997Y-2.819
X4.8997Y-3.399
X4.8997Y-4.239
X4.9297Y-3.489
X4.9297Y-4.269
X4.9497Y-3.159
X4.9797Y-3.129
X5.0097Y-3.489
X5.0097Y-4.379
X5.0197Y-2.039
X5.0497Y-4.339
X5.0497Y-4.659
X5.0597Y-3.829
X5.0997Y-1.539
X5.0997Y-2.179
X5.0997Y-2.839
X5.0997Y-4.609
X5.1097Y-3.879
X5.1097Y-4.339
X5.1797Y-2.139
X5.1797Y-4.609
X5.1997Y-1.579
X5.1997Y-2.499
X5.1997Y-2.819
X5.1997Y-3.299
X5.1997Y-3.699
X5.2097Y-4.579
X5.2797Y-4.579
X5.2997Y-2.479
X5.2997Y-2.799
X5.2997Y-3.279
X5.2997Y-3.679
X5.2997Y-4.099
X5.3097Y-4.549
X5.3497Y-4.379
X5.3497Y-4.629
X5.3897Y-1.539
X5.3897Y-2.179
X5.3997Y-2.459
X5.3997Y-2.779
X5.3997Y-3.259
X5.3997Y-3.659
X5.3997Y-4.079
X5.3997Y-4.549
X5.4497Y-4.509
X5.4997Y-1.539
X5.4997Y-2.759
X5.4997Y-3.239
X5.4997Y-3.639
X5.4997Y-4.059
X5.5497Y-4.539
X5.5997Y-2.019
X5.5997Y-3.219
X5.5997Y-3.619
X5.5997Y-4.039
X5.6297Y-4.269
X5.6297Y-4.689
X5.6497Y-1.829
X5.6597Y-4.299
X5.6597Y-4.659
X5.6997Y-1.579
X5.6997Y-3.199
X5.6997Y-3.599
X5.6997Y-4.019
X5.7497Y-4.569
X5.7997Y-1.539
X5.7997Y-3.179
X5.7997Y-3.579
X5.7997Y-3.999
X5.7997Y-4.419
X5.8497Y-4.599
X5.8697Y-4.419
X5.8997Y-1.499
X5.8997Y-2.179
X5.8997Y-2.739
X5.8997Y-3.159
X5.8997Y-3.559
X5.8997Y-3.979
X5.9197Y-4.4172
X5.9497Y-4.629
X5.9497Y-4.689
X5.9997Y-1.539
X5.9997Y-3.959
X5.9997Y-4.419
X6.0197Y-4.299
X6.0497Y-1.459
X6.0497Y-2.049
X6.0497Y-4.629
X6.0997Y-1.539
X6.0997Y-2.139
X6.0997Y-3.689
X6.0997Y-4.299
X6.1497Y-1.909
X6.1497Y-4.419
X6.1597Y-2.749
X6.1597Y-2.859
X6.1597Y-4.239
X6.1897Y-2.779
X6.1897Y-2.889
X6.1897Y-3.069
X6.1997Y-1.959
X6.1997Y-3.939
X6.1997Y-4.339
X6.2097Y-2.669
X6.2197Y-3.899
X6.2397Y-2.049
X6.2597Y-4.569
X6.2897Y-3.939
X6.2897Y-4.509
X6.2997Y-1.539
X6.2997Y-2.179
X6.2997Y-2.269
X6.2997Y-2.669
X6.2997Y-2.709
X6.2997Y-2.869
X6.2997Y-3.569
X6.2997Y-4.629
X6.3097Y-3.899
X6.3097Y-4.549
X6.3397Y-4.599
X6.3597Y-1.929
X6.3897Y-1.959
X6.3897Y-2.829
X6.3966Y-3.769
X6.3997Y-1.579
X6.3997Y-4.259
X6.4397Y-4.379
X6.4997Y-4.279
X6.5197Y-2.309
X6.5497Y-4.419
X6.5897Y-4.339
X6.5997Y-1.539
X6.5997Y-3.689
X6.6497Y-2.779
X6.6497Y-4.289
X6.6997Y-3.639
X6.6997Y-3.869
X6.6997Y-4.289
X6.7497Y-2.179
X6.7497Y-2.439
X6.7497Y-3.299
X6.7497Y-3.939
X6.7997Y-2.389
X6.7997Y-2.499
X6.7997Y-3.869
X6.7997Y-4.339
X6.7997Y-4.659
X6.8297Y-1.539
X6.8397Y-2.359
X6.8497Y-3.909
X6.8997Y-1.539
X6.8997Y-2.179
X6.8997Y-2.749
X6.8997Y-3.959
X6.8997Y-4.379
X6.9397Y-1.499
X6.9497Y-3.639
X6.9497Y-3.929
X6.9797Y-3.979
X6.9997Y-1.429
X6.9997Y-2.499
X7.0097Y-3.869
X7.0497Y-3.299
X7.0497Y-3.639
X7.0497Y-3.909
X7.0897Y-3.999
X7.0997Y-1.459
X7.0997Y-1.579
X7.0997Y-2.179
X7.0997Y-4.229
X7.1197Y-3.929
X7.1497Y-1.989
X7.1897Y-4.019
X7.1997Y-1.429
X7.1997Y-2.359
X7.1997Y-2.669
X7.1997Y-4.249
X7.2497Y-1.929
X7.2897Y-4.039
X7.2997Y-1.499
X7.2997Y-2.469
X7.2997Y-4.259
X7.3997Y-1.579
X7.3997Y-4.059
X7.4297Y-3.869
X7.4997Y-1.959
X7.4997Y-4.079
X7.5297Y-2.179
X7.5297Y-2.569
X7.5297Y-3.899
X7.5997Y-1.579
X7.5997Y-2.179
X7.5997Y-2.669
X7.5997Y-4.099
X7.6497Y-3.869
X7.6997Y-2.779
X7.6997Y-4.089
X7.7497Y-2.409
X7.7497Y-3.899
X7.7597Y-4.169
X7.7897Y-1.539
X7.7897Y-2.669
X7.7997Y-2.749
X7.7997Y-3.929
X7.8497Y-4.299
X7.8997Y-3.689
X7.8997Y-4.089
X7.8997Y-4.379
T2
X3.1997Y-1.369
X3.1997Y-1.969
X3.2997Y-1.369
X3.2997Y-1.969
X3.3997Y-1.369
X3.3997Y-1.969
X3.4997Y-1.369
X3.4997Y-1.969
X3.5997Y-1.369
X3.5997Y-1.969
X3.6997Y-1.369
X3.6997Y-1.969
X3.7997Y-1.369
X3.7997Y-1.969
X3.8997Y-1.369
X3.8997Y-1.969
X3.9997Y-1.369
X3.9997Y-1.969
X4.0997Y-1.369
X4.0997Y-1.969
X4.1997Y-1.369
X4.1997Y-1.969
X4.2997Y-1.369
X4.2997Y-1.969
X4.3997Y-1.369
X4.3997Y-1.969
X4.4997Y-1.369
X4.4997Y-1.969
X4.5997Y-1.369
X4.5997Y-1.969
X4.6997Y-1.369
X4.6997Y-1.969
X4.7997Y-1.369
X4.7997Y-1.969
X4.8997Y-1.369
X4.8997Y-1.969
X4.9997Y-1.369
X4.9997Y-1.969
X5.0997Y-1.369
X5.0997Y-1.969
X6.5997Y-2.869
X6.5997Y-3.469
X6.6997Y-2.869
X6.6997Y-3.469
X6.7997Y-2.869
X6.7997Y-3.469
X6.8997Y-2.869
X6.8997Y-3.469
X6.9997Y-2.869
X6.9997Y-3.469
X7.0997Y-2.869
X7.0997Y-3.469
X7.1997Y-2.869
X7.1997Y-3.469
X7.2997Y-2.869
X7.2997Y-3.469
X7.3997Y-2.869
X7.3997Y-3.469
X7.4997Y-2.869
X7.4997Y-3.469
X7.5997Y-2.869
X7.5997Y-3.469
X7.6997Y-2.869
X7.6997Y-3.469
X7.7997Y-2.869
X7.7997Y-3.469
X7.8997Y-2.869
X7.8997Y-3.469
X6.8997Y-1.369
X6.8997Y-1.669
X6.9997Y-1.369
X6.9997Y-1.669
X7.0997Y-1.369
X7.0997Y-1.669
X7.1997Y-1.369
X7.1997Y-1.669
X7.2997Y-1.369
X7.2997Y-1.669
X7.3997Y-1.369
X7.3997Y-1.669
X7.4997Y-1.369
X7.4997Y-1.669
X6.5997Y-2.269
X6.5997Y-2.569
X6.6997Y-2.269
X6.6997Y-2.569
X6.7997Y-2.269
X6.7997Y-2.569
X6.8997Y-2.269
X6.8997Y-2.569
X6.9997Y-2.269
X6.9997Y-2.569
X7.0997Y-2.269
X7.0997Y-2.569
X7.1997Y-2.269
X7.1997Y-2.569
X7.2997Y-2.269
X7.2997Y-2.569
X4.5997Y-3.879
X4.9997Y-3.879
X5.0997Y-2.269
X5.0997Y-2.569
X5.1997Y-2.269
X5.1997Y-2.569
X5.2997Y-2.269
X5.2997Y-2.569
X5.3997Y-2.269
X5.3997Y-2.569
X5.4997Y-2.269
X5.4997Y-2.569
X5.5997Y-2.269
X5.5997Y-2.569
X5.6997Y-2.269
X5.6997Y-2.569
X5.7997Y-2.269
X5.7997Y-2.569
X5.8997Y-2.269
X5.8997Y-2.569
X5.9997Y-2.269
X5.9997Y-2.569
X6.0997Y-1.959
X6.2926Y-1.959
X6.8997Y-1.769
X6.8997Y-2.069
X6.9997Y-1.769
X6.9997Y-2.069
X7.0997Y-1.769
X7.0997Y-2.069
X7.1997Y-1.769
X7.1997Y-2.069
X7.2997Y-1.769
X7.2997Y-2.069
X7.3997Y-1.769
X7.3997Y-2.069
X7.4997Y-1.769
X7.4997Y-2.069
X7.7028Y-3.569
X7.8997Y-3.569
X5.0997Y-2.669
X5.0997Y-2.969
X5.1997Y-2.669
X5.1997Y-2.969
X5.2997Y-2.669
X5.2997Y-2.969
X5.3997Y-2.669
X5.3997Y-2.969
X5.4997Y-2.669
X5.4997Y-2.969
X5.5997Y-2.669
X5.5997Y-2.969
X5.6997Y-2.669
X5.6997Y-2.969
X5.7997Y-2.669
X5.7997Y-2.969
X5.8997Y-2.669
X5.8997Y-2.969
X5.9997Y-2.669
X5.9997Y-2.969
X5.0997Y-3.469
X5.0997Y-3.769
X5.1997Y-3.469
X5.1997Y-3.769
X5.2997Y-3.469
X5.2997Y-3.769
X5.3997Y-3.469
X5.3997Y-3.769
X5.4997Y-3.469
X5.4997Y-3.769
X5.5997Y-3.469
X5.5997Y-3.769
X5.6997Y-3.469
X5.6997Y-3.769
X5.7997Y-3.469
X5.7997Y-3.769
X5.8997Y-3.469
X5.8997Y-3.769
X5.9997Y-3.469
X5.9997Y-3.769
X5.1997Y-3.869
X5.1997Y-4.169
X5.2997Y-3.869
X5.2997Y-4.169
X5.3997Y-3.869
X5.3997Y-4.169
X5.4997Y-3.869
X5.4997Y-4.169
X5.5997Y-3.869
X5.5997Y-4.169
X5.6997Y-3.869
X5.6997Y-4.169
X5.7997Y-3.869
X5.7997Y-4.169
X5.8997Y-3.869
X5.8997Y-4.169
X5.9997Y-3.869
X5.9997Y-4.169
X6.0997Y-3.869
X6.0997Y-4.169
X7.3997Y-2.569
X7.5966Y-2.569
X6.0997Y-3.769
X6.2966Y-3.769
X7.5997Y-1.669
X7.7966Y-1.669
X6.4997Y-3.569
X6.4997Y-4.169
X6.5997Y-3.569
X6.5997Y-4.169
X6.6997Y-3.569
X6.6997Y-4.169
X6.7997Y-3.569
X6.7997Y-4.169
X6.8997Y-3.569
X6.8997Y-4.169
X6.9997Y-3.569
X6.9997Y-4.169
X7.0997Y-3.569
X7.0997Y-4.169
X7.1997Y-3.569
X7.1997Y-4.169
X7.2997Y-3.569
X7.2997Y-4.169
X7.3997Y-3.569
X7.3997Y-4.169
X7.4997Y-3.569
X7.4997Y-4.169
X7.5997Y-3.569
X7.5997Y-4.169
X7.4097Y-2.179
X7.8097Y-2.179
X3.2397Y-4.039
X3.4366Y-4.039
X5.1997Y-1.969
X5.3966Y-1.969
X7.6997Y-4.169
X7.8966Y-4.169
X5.5097Y-1.829
X5.9097Y-1.829
X5.5097Y-2.069
X5.9097Y-2.069
X4.7997Y-3.769
X4.9966Y-3.769
X6.0997Y-3.369
X6.2966Y-3.369
X5.5097Y-1.949
X5.9097Y-1.949
X6.1997Y-4.169
X6.3966Y-4.169
X6.0997Y-2.569
X6.2966Y-2.569
X3.7997Y-3.469
X3.7997Y-3.769
X3.8997Y-3.469
X3.8997Y-3.769
X3.9997Y-3.469
X3.9997Y-3.769
X4.0997Y-3.469
X4.0997Y-3.769
X4.1997Y-3.469
X4.1997Y-3.769
X4.2997Y-3.469
X4.2997Y-3.769
X4.3997Y-3.469
X4.3997Y-3.769
X4.4997Y-3.469
X4.4997Y-3.769
X4.5997Y-3.469
X4.5997Y-3.769
X4.6997Y-3.469
X4.6997Y-3.769
X7.5997Y-2.069
X7.7966Y-2.069
X5.4997Y-1.369
X5.4997Y-1.669
X5.5997Y-1.369
X5.5997Y-1.669
X5.6997Y-1.369
X5.6997Y-1.669
X5.7997Y-1.369
X5.7997Y-1.669
X5.8997Y-1.369
X5.8997Y-1.669
X5.9997Y-1.369
X5.9997Y-1.669
X6.0997Y-1.369
X6.0997Y-1.669
X6.1997Y-1.369
X6.1997Y-1.669
X6.2997Y-1.369
X6.2997Y-1.669
X5.0997Y-3.069
X5.0997Y-3.369
X5.1997Y-3.069
X5.1997Y-3.369
X5.2997Y-3.069
X5.2997Y-3.369
X5.3997Y-3.069
X5.3997Y-3.369
X5.4997Y-3.069
X5.4997Y-3.369
X5.5997Y-3.069
X5.5997Y-3.369
X5.6997Y-3.069
X5.6997Y-3.369
X5.7997Y-3.069
X5.7997Y-3.369
X5.8997Y-3.069
X5.8997Y-3.369
X5.9997Y-3.069
X5.9997Y-3.369
X6.0997Y-2.969
X6.2966Y-2.969
X6.3997Y-1.669
X6.5966Y-1.669
T3
X5.0097Y-4.429
X5.0097Y-4.529
X3.3297Y-3.209
X3.3297Y-3.309
X3.3297Y-3.409
X3.3297Y-3.509
X3.3297Y-3.609
X3.3297Y-3.709
X3.3297Y-3.809
X3.3297Y-3.909
X3.4297Y-3.209
X3.4297Y-3.309
X3.4297Y-3.409
X3.4297Y-3.509
X3.4297Y-3.609
X3.4297Y-3.709
X3.4297Y-3.809
X3.4297Y-3.909
X4.9997Y-4.769
X4.9997Y-4.869
X5.0997Y-4.769
X5.0997Y-4.869
X5.1997Y-4.769
X5.1997Y-4.869
X5.2997Y-4.769
X5.2997Y-4.869
X5.3997Y-4.769
X5.3997Y-4.869
X5.4997Y-4.769
X5.4997Y-4.869
X5.5997Y-4.769
X5.5997Y-4.869
X5.6997Y-4.769
X5.6997Y-4.869
X5.7997Y-4.769
X5.7997Y-4.869
X5.8997Y-4.769
X5.8997Y-4.869
X5.9997Y-4.769
X5.9997Y-4.869
X6.0997Y-4.769
X6.0997Y-4.869
X6.1997Y-4.769
X6.1997Y-4.869
X6.2997Y-4.769
X6.2997Y-4.869
X6.3997Y-4.769
X6.3997Y-4.869
X6.4997Y-4.769
X6.4997Y-4.869
X6.5997Y-4.769
X6.5997Y-4.869
X6.6997Y-4.769
X6.6997Y-4.869
X6.7997Y-4.769
X6.7997Y-4.869
X6.8997Y-4.769
X6.8997Y-4.869
T0
M30
