G04 #@! TF.GenerationSoftware,KiCad,Pcbnew,(5.1.8)-1*
G04 #@! TF.CreationDate,2022-06-05T20:07:46-06:00*
G04 #@! TF.ProjectId,PI86 V3,50493836-2056-4332-9e6b-696361645f70,rev?*
G04 #@! TF.SameCoordinates,Original*
G04 #@! TF.FileFunction,Soldermask,Top*
G04 #@! TF.FilePolarity,Negative*
%FSLAX46Y46*%
G04 Gerber Fmt 4.6, Leading zero omitted, Abs format (unit mm)*
G04 Created by KiCad (PCBNEW (5.1.8)-1) date 2022-06-05 20:07:46*
%MOMM*%
%LPD*%
G01*
G04 APERTURE LIST*
%ADD10O,1.600000X1.600000*%
%ADD11R,1.600000X1.600000*%
%ADD12C,1.600000*%
%ADD13O,1.700000X1.700000*%
%ADD14R,1.700000X1.700000*%
%ADD15C,1.500000*%
G04 APERTURE END LIST*
D10*
G04 #@! TO.C,U8*
X193032380Y-105892600D03*
X165092380Y-90652600D03*
X190492380Y-105892600D03*
X167632380Y-90652600D03*
X187952380Y-105892600D03*
X170172380Y-90652600D03*
X185412380Y-105892600D03*
X172712380Y-90652600D03*
X182872380Y-105892600D03*
X175252380Y-90652600D03*
X180332380Y-105892600D03*
X177792380Y-90652600D03*
X177792380Y-105892600D03*
X180332380Y-90652600D03*
X175252380Y-105892600D03*
X182872380Y-90652600D03*
X172712380Y-105892600D03*
X185412380Y-90652600D03*
X170172380Y-105892600D03*
X187952380Y-90652600D03*
X167632380Y-105892600D03*
X190492380Y-90652600D03*
X165092380Y-105892600D03*
D11*
X193032380Y-90652600D03*
G04 #@! TD*
D12*
G04 #@! TO.C,C14*
X87288380Y-102590600D03*
X82288380Y-102590600D03*
G04 #@! TD*
D13*
G04 #@! TO.C,J3*
X87114380Y-99288600D03*
X84574380Y-99288600D03*
X87114380Y-96748600D03*
X84574380Y-96748600D03*
X87114380Y-94208600D03*
X84574380Y-94208600D03*
X87114380Y-91668600D03*
X84574380Y-91668600D03*
X87114380Y-89128600D03*
X84574380Y-89128600D03*
X87114380Y-86588600D03*
X84574380Y-86588600D03*
X87114380Y-84048600D03*
X84574380Y-84048600D03*
X87114380Y-81508600D03*
D14*
X84574380Y-81508600D03*
G04 #@! TD*
D10*
G04 #@! TO.C,U13*
X154932380Y-105892600D03*
X132072380Y-98272600D03*
X152392380Y-105892600D03*
X134612380Y-98272600D03*
X149852380Y-105892600D03*
X137152380Y-98272600D03*
X147312380Y-105892600D03*
X139692380Y-98272600D03*
X144772380Y-105892600D03*
X142232380Y-98272600D03*
X142232380Y-105892600D03*
X144772380Y-98272600D03*
X139692380Y-105892600D03*
X147312380Y-98272600D03*
X137152380Y-105892600D03*
X149852380Y-98272600D03*
X134612380Y-105892600D03*
X152392380Y-98272600D03*
X132072380Y-105892600D03*
D11*
X154932380Y-98272600D03*
G04 #@! TD*
D12*
G04 #@! TO.C,C13*
X157472380Y-105892600D03*
X162472380Y-105892600D03*
G04 #@! TD*
D10*
G04 #@! TO.C,U12*
X185412380Y-65252600D03*
X167632380Y-57632600D03*
X182872380Y-65252600D03*
X170172380Y-57632600D03*
X180332380Y-65252600D03*
X172712380Y-57632600D03*
X177792380Y-65252600D03*
X175252380Y-57632600D03*
X175252380Y-65252600D03*
X177792380Y-57632600D03*
X172712380Y-65252600D03*
X180332380Y-57632600D03*
X170172380Y-65252600D03*
X182872380Y-57632600D03*
X167632380Y-65252600D03*
D11*
X185412380Y-57632600D03*
G04 #@! TD*
D10*
G04 #@! TO.C,R4*
X150106380Y-52552600D03*
D12*
X139946380Y-52552600D03*
G04 #@! TD*
D10*
G04 #@! TO.C,R3*
X198366380Y-55346600D03*
D12*
X188206380Y-55346600D03*
G04 #@! TD*
G04 #@! TO.C,C12*
X187952380Y-65252600D03*
X192952380Y-65252600D03*
G04 #@! TD*
D15*
G04 #@! TO.C,Y1*
X159832380Y-49758600D03*
X154932380Y-49758600D03*
G04 #@! TD*
D10*
G04 #@! TO.C,U11*
X190492380Y-42392600D03*
X175252380Y-34772600D03*
X187952380Y-42392600D03*
X177792380Y-34772600D03*
X185412380Y-42392600D03*
X180332380Y-34772600D03*
X182872380Y-42392600D03*
X182872380Y-34772600D03*
X180332380Y-42392600D03*
X185412380Y-34772600D03*
X177792380Y-42392600D03*
X187952380Y-34772600D03*
X175252380Y-42392600D03*
D11*
X190492380Y-34772600D03*
G04 #@! TD*
D10*
G04 #@! TO.C,U10*
X190492380Y-52552600D03*
X175252380Y-44932600D03*
X187952380Y-52552600D03*
X177792380Y-44932600D03*
X185412380Y-52552600D03*
X180332380Y-44932600D03*
X182872380Y-52552600D03*
X182872380Y-44932600D03*
X180332380Y-52552600D03*
X185412380Y-44932600D03*
X177792380Y-52552600D03*
X187952380Y-44932600D03*
X175252380Y-52552600D03*
D11*
X190492380Y-44932600D03*
G04 #@! TD*
D10*
G04 #@! TO.C,U9*
X152392380Y-85572600D03*
X129532380Y-77952600D03*
X149852380Y-85572600D03*
X132072380Y-77952600D03*
X147312380Y-85572600D03*
X134612380Y-77952600D03*
X144772380Y-85572600D03*
X137152380Y-77952600D03*
X142232380Y-85572600D03*
X139692380Y-77952600D03*
X139692380Y-85572600D03*
X142232380Y-77952600D03*
X137152380Y-85572600D03*
X144772380Y-77952600D03*
X134612380Y-85572600D03*
X147312380Y-77952600D03*
X132072380Y-85572600D03*
X149852380Y-77952600D03*
X129532380Y-85572600D03*
D11*
X152392380Y-77952600D03*
G04 #@! TD*
D10*
G04 #@! TO.C,U7*
X200652380Y-88112600D03*
X167632380Y-72872600D03*
X198112380Y-88112600D03*
X170172380Y-72872600D03*
X195572380Y-88112600D03*
X172712380Y-72872600D03*
X193032380Y-88112600D03*
X175252380Y-72872600D03*
X190492380Y-88112600D03*
X177792380Y-72872600D03*
X187952380Y-88112600D03*
X180332380Y-72872600D03*
X185412380Y-88112600D03*
X182872380Y-72872600D03*
X182872380Y-88112600D03*
X185412380Y-72872600D03*
X180332380Y-88112600D03*
X187952380Y-72872600D03*
X177792380Y-88112600D03*
X190492380Y-72872600D03*
X175252380Y-88112600D03*
X193032380Y-72872600D03*
X172712380Y-88112600D03*
X195572380Y-72872600D03*
X170172380Y-88112600D03*
X198112380Y-72872600D03*
X167632380Y-88112600D03*
D11*
X200652380Y-72872600D03*
G04 #@! TD*
D10*
G04 #@! TO.C,U6*
X160012380Y-42392600D03*
X139692380Y-34772600D03*
X157472380Y-42392600D03*
X142232380Y-34772600D03*
X154932380Y-42392600D03*
X144772380Y-34772600D03*
X152392380Y-42392600D03*
X147312380Y-34772600D03*
X149852380Y-42392600D03*
X149852380Y-34772600D03*
X147312380Y-42392600D03*
X152392380Y-34772600D03*
X144772380Y-42392600D03*
X154932380Y-34772600D03*
X142232380Y-42392600D03*
X157472380Y-34772600D03*
X139692380Y-42392600D03*
D11*
X160012380Y-34772600D03*
G04 #@! TD*
D10*
G04 #@! TO.C,U5*
X152392380Y-65252600D03*
X129532380Y-57632600D03*
X149852380Y-65252600D03*
X132072380Y-57632600D03*
X147312380Y-65252600D03*
X134612380Y-57632600D03*
X144772380Y-65252600D03*
X137152380Y-57632600D03*
X142232380Y-65252600D03*
X139692380Y-57632600D03*
X139692380Y-65252600D03*
X142232380Y-57632600D03*
X137152380Y-65252600D03*
X144772380Y-57632600D03*
X134612380Y-65252600D03*
X147312380Y-57632600D03*
X132072380Y-65252600D03*
X149852380Y-57632600D03*
X129532380Y-65252600D03*
D11*
X152392380Y-57632600D03*
G04 #@! TD*
D10*
G04 #@! TO.C,U4*
X119372380Y-95732600D03*
X96512380Y-88112600D03*
X116832380Y-95732600D03*
X99052380Y-88112600D03*
X114292380Y-95732600D03*
X101592380Y-88112600D03*
X111752380Y-95732600D03*
X104132380Y-88112600D03*
X109212380Y-95732600D03*
X106672380Y-88112600D03*
X106672380Y-95732600D03*
X109212380Y-88112600D03*
X104132380Y-95732600D03*
X111752380Y-88112600D03*
X101592380Y-95732600D03*
X114292380Y-88112600D03*
X99052380Y-95732600D03*
X116832380Y-88112600D03*
X96512380Y-95732600D03*
D11*
X119372380Y-88112600D03*
G04 #@! TD*
D10*
G04 #@! TO.C,U3*
X152392380Y-95732600D03*
X129532380Y-88112600D03*
X149852380Y-95732600D03*
X132072380Y-88112600D03*
X147312380Y-95732600D03*
X134612380Y-88112600D03*
X144772380Y-95732600D03*
X137152380Y-88112600D03*
X142232380Y-95732600D03*
X139692380Y-88112600D03*
X139692380Y-95732600D03*
X142232380Y-88112600D03*
X137152380Y-95732600D03*
X144772380Y-88112600D03*
X134612380Y-95732600D03*
X147312380Y-88112600D03*
X132072380Y-95732600D03*
X149852380Y-88112600D03*
X129532380Y-95732600D03*
D11*
X152392380Y-88112600D03*
G04 #@! TD*
D10*
G04 #@! TO.C,U2*
X152392380Y-75412600D03*
X129532380Y-67792600D03*
X149852380Y-75412600D03*
X132072380Y-67792600D03*
X147312380Y-75412600D03*
X134612380Y-67792600D03*
X144772380Y-75412600D03*
X137152380Y-67792600D03*
X142232380Y-75412600D03*
X139692380Y-67792600D03*
X139692380Y-75412600D03*
X142232380Y-67792600D03*
X137152380Y-75412600D03*
X144772380Y-67792600D03*
X134612380Y-75412600D03*
X147312380Y-67792600D03*
X132072380Y-75412600D03*
X149852380Y-67792600D03*
X129532380Y-75412600D03*
D11*
X152392380Y-67792600D03*
G04 #@! TD*
D10*
G04 #@! TO.C,U1*
X129532380Y-50012600D03*
X81272380Y-34772600D03*
X126992380Y-50012600D03*
X83812380Y-34772600D03*
X124452380Y-50012600D03*
X86352380Y-34772600D03*
X121912380Y-50012600D03*
X88892380Y-34772600D03*
X119372380Y-50012600D03*
X91432380Y-34772600D03*
X116832380Y-50012600D03*
X93972380Y-34772600D03*
X114292380Y-50012600D03*
X96512380Y-34772600D03*
X111752380Y-50012600D03*
X99052380Y-34772600D03*
X109212380Y-50012600D03*
X101592380Y-34772600D03*
X106672380Y-50012600D03*
X104132380Y-34772600D03*
X104132380Y-50012600D03*
X106672380Y-34772600D03*
X101592380Y-50012600D03*
X109212380Y-34772600D03*
X99052380Y-50012600D03*
X111752380Y-34772600D03*
X96512380Y-50012600D03*
X114292380Y-34772600D03*
X93972380Y-50012600D03*
X116832380Y-34772600D03*
X91432380Y-50012600D03*
X119372380Y-34772600D03*
X88892380Y-50012600D03*
X121912380Y-34772600D03*
X86352380Y-50012600D03*
X124452380Y-34772600D03*
X83812380Y-50012600D03*
X126992380Y-34772600D03*
X81272380Y-50012600D03*
D11*
X129532380Y-34772600D03*
G04 #@! TD*
D10*
G04 #@! TO.C,R5*
X126992380Y-98526600D03*
D12*
X116832380Y-98526600D03*
G04 #@! TD*
D10*
G04 #@! TO.C,R2*
X150106380Y-49504600D03*
D12*
X139946380Y-49504600D03*
G04 #@! TD*
D10*
G04 #@! TO.C,R1*
X150106380Y-46456600D03*
D12*
X139946380Y-46456600D03*
G04 #@! TD*
D13*
G04 #@! TO.C,J2*
X127246380Y-112496600D03*
D14*
X127246380Y-115036600D03*
G04 #@! TD*
D13*
G04 #@! TO.C,J1*
X175252380Y-123672600D03*
X175252380Y-121132600D03*
X172712380Y-123672600D03*
X172712380Y-121132600D03*
X170172380Y-123672600D03*
X170172380Y-121132600D03*
X167632380Y-123672600D03*
X167632380Y-121132600D03*
X165092380Y-123672600D03*
X165092380Y-121132600D03*
X162552380Y-123672600D03*
X162552380Y-121132600D03*
X160012380Y-123672600D03*
X160012380Y-121132600D03*
X157472380Y-123672600D03*
X157472380Y-121132600D03*
X154932380Y-123672600D03*
X154932380Y-121132600D03*
X152392380Y-123672600D03*
X152392380Y-121132600D03*
X149852380Y-123672600D03*
X149852380Y-121132600D03*
X147312380Y-123672600D03*
X147312380Y-121132600D03*
X144772380Y-123672600D03*
X144772380Y-121132600D03*
X142232380Y-123672600D03*
X142232380Y-121132600D03*
X139692380Y-123672600D03*
X139692380Y-121132600D03*
X137152380Y-123672600D03*
X137152380Y-121132600D03*
X134612380Y-123672600D03*
X134612380Y-121132600D03*
X132072380Y-123672600D03*
X132072380Y-121132600D03*
X129532380Y-123672600D03*
X129532380Y-121132600D03*
X126992380Y-123672600D03*
D14*
X126992380Y-121132600D03*
G04 #@! TD*
D12*
G04 #@! TO.C,C11*
X193032380Y-42392600D03*
X198032380Y-42392600D03*
G04 #@! TD*
G04 #@! TO.C,C10*
X193032380Y-52552600D03*
X198032380Y-52552600D03*
G04 #@! TD*
G04 #@! TO.C,C9*
X154932380Y-85572600D03*
X159932380Y-85572600D03*
G04 #@! TD*
G04 #@! TO.C,C8*
X195572380Y-105892600D03*
X200572380Y-105892600D03*
G04 #@! TD*
G04 #@! TO.C,C7*
X200652380Y-90652600D03*
X195652380Y-90652600D03*
G04 #@! TD*
G04 #@! TO.C,C6*
X162552380Y-42392600D03*
X167552380Y-42392600D03*
G04 #@! TD*
G04 #@! TO.C,C5*
X154932380Y-65252600D03*
X159932380Y-65252600D03*
G04 #@! TD*
G04 #@! TO.C,C4*
X121912380Y-95732600D03*
X126912380Y-95732600D03*
G04 #@! TD*
G04 #@! TO.C,C3*
X154932380Y-95732600D03*
X159932380Y-95732600D03*
G04 #@! TD*
G04 #@! TO.C,C2*
X154932380Y-75412600D03*
X159932380Y-75412600D03*
G04 #@! TD*
G04 #@! TO.C,C1*
X132072380Y-50012600D03*
X137072380Y-50012600D03*
G04 #@! TD*
M02*
